<svg width="20" height="20" viewBox="0 0 20 20" fill="none" xmlns="http://www.w3.org/2000/svg">
  <rect width="20" height="20" rx="4" fill="#73BE6F"/>
  <path d="M7.22176 9.034C6.56309 9.034 6.00409 8.81733 5.54476 8.384C5.09409 7.95067 4.86876 7.422 4.86876 6.798C4.86876 6.18267 5.09842 5.654 5.55776 5.212C6.01709 4.77 6.57176 4.549 7.22176 4.549C7.87176 4.549 8.42642 4.77 8.88576 5.212C9.34509 5.654 9.57476 6.18267 9.57476 6.798C9.57476 7.422 9.34509 7.95067 8.88576 8.384C8.42642 8.81733 7.87176 9.034 7.22176 9.034ZM5.38876 14L12.5648 4.705H14.5408L7.36476 14H5.38876ZM6.71476 7.279C6.85342 7.409 7.02242 7.474 7.22176 7.474C7.42109 7.474 7.59009 7.409 7.72876 7.279C7.86742 7.14033 7.93676 6.97567 7.93676 6.785C7.93676 6.603 7.86309 6.447 7.71576 6.317C7.57709 6.17833 7.41242 6.109 7.22176 6.109C7.03109 6.109 6.86209 6.17833 6.71476 6.317C6.57609 6.447 6.50676 6.603 6.50676 6.785C6.50676 6.97567 6.57609 7.14033 6.71476 7.279ZM10.4198 11.92C10.4198 11.3047 10.6494 10.776 11.1088 10.334C11.5681 9.892 12.1228 9.671 12.7728 9.671C13.4228 9.671 13.9774 9.892 14.4368 10.334C14.8961 10.776 15.1258 11.3047 15.1258 11.92C15.1258 12.544 14.8961 13.0727 14.4368 13.506C13.9774 13.9393 13.4228 14.156 12.7728 14.156C12.1141 14.156 11.5551 13.9393 11.0958 13.506C10.6451 13.0727 10.4198 12.544 10.4198 11.92ZM12.0578 11.907C12.0578 12.0977 12.1271 12.2623 12.2658 12.401C12.4044 12.531 12.5734 12.596 12.7728 12.596C12.9721 12.596 13.1411 12.531 13.2798 12.401C13.4184 12.2623 13.4878 12.0977 13.4878 11.907C13.4878 11.725 13.4141 11.569 13.2668 11.439C13.1281 11.3003 12.9634 11.231 12.7728 11.231C12.5821 11.231 12.4131 11.3003 12.2658 11.439C12.1271 11.569 12.0578 11.725 12.0578 11.907Z" fill="white"/>
</svg>
