<svg width="20" height="20" viewBox="0 0 20 20" fill="none" xmlns="http://www.w3.org/2000/svg">
  <path fill-rule="evenodd" clip-rule="evenodd" d="M10 20C15.5228 20 20 15.5228 20 10C20 4.47715 15.5228 0 10 0C4.47715 0 0 4.47715 0 10C0 15.5228 4.47715 20 10 20ZM10 3C10.5523 3 11 3.44772 11 4V9H16C16.5523 9 17 9.44772 17 10C17 10.5523 16.5523 11 16 11H11L11 16C11 16.5523 10.5523 17 10 17C9.44771 17 9 16.5523 9 16V11H4C3.44772 11 3 10.5523 3 10C3 9.44772 3.44772 9 4 9H9V4C9 3.44772 9.44772 3 10 3Z" fill="#B2B2B2"/>
</svg>
